<?xml version="1.0" standalone="no"?>
<!DOCTYPE svg PUBLIC "-//W3C//DTD SVG 20010904//EN"
 "http://www.w3.org/TR/2001/REC-SVG-20010904/DTD/svg10.dtd">
<svg version="1.0" xmlns="http://www.w3.org/2000/svg"
 width="260.000000pt" height="260.000000pt" viewBox="0 0 260.000000 260.000000"
 preserveAspectRatio="xMidYMid meet">
<metadata>
Created by potrace 1.11, written by Peter Selinger 2001-2013
</metadata>
<g transform="translate(0.000000,260.000000) scale(0.100000,-0.100000)"
fill="#000000" stroke="none">
<path d="M842 2588 c-26 -26 -8 -58 33 -58 25 0 37 36 19 54 -19 19 -36 20
-52 4z"/>
<path d="M657 2553 c-15 -15 -6 -52 14 -58 28 -9 53 16 44 44 -6 20 -43 29
-58 14z"/>
<path d="M476 2515 c-20 -20 -20 -29 0 -49 17 -18 24 -19 41 -8 20 13 19 44
-3 58 -19 13 -24 13 -38 -1z"/>
<path d="M882 2408 c-30 -30 3 -77 40 -57 24 13 23 46 -1 59 -24 13 -24 13
-39 -2z"/>
<path d="M682 2378 c-33 -33 6 -96 52 -84 29 7 45 49 29 75 -13 20 -64 26 -81
9z"/>
<path d="M1627 2369 c-22 -13 -22 -42 0 -60 17 -14 20 -14 41 3 32 27 -4 77
-41 57z"/>
<path d="M507 2332 c-32 -36 19 -88 54 -56 23 21 24 37 3 55 -23 19 -41 19
-57 1z"/>
<path d="M1436 2324 c-21 -21 -4 -54 28 -54 28 0 40 24 26 51 -13 23 -33 24
-54 3z"/>
<path d="M323 2289 c-15 -15 -4 -47 19 -55 27 -8 52 17 43 45 -7 23 -43 29
-62 10z"/>
<path d="M910 2230 c-23 -23 -25 -40 -7 -62 20 -25 54 -28 74 -6 21 23 19 57
-5 76 -22 17 -39 15 -62 -8z"/>
<path d="M1839 2214 c-15 -19 -2 -47 26 -52 25 -5 38 13 31 42 -7 30 -36 35
-57 10z"/>
<path d="M717 2202 c-22 -24 -21 -65 1 -85 58 -53 137 28 82 83 -25 25 -62 26
-83 2z"/>
<path d="M1650 2190 c-23 -23 -25 -40 -7 -62 22 -28 55 -29 76 -1 21 26 18 50
-7 71 -22 17 -39 15 -62 -8z"/>
<path d="M544 2162 c-21 -14 -25 -45 -9 -69 22 -32 64 -28 84 9 14 24 14 28
-3 47 -19 21 -52 27 -72 13z"/>
<path d="M1468 2159 c-21 -12 -24 -59 -6 -77 19 -19 66 -15 78 7 29 54 -20
101 -72 70z"/>
<path d="M378 2122 c-22 -4 -35 -49 -19 -65 28 -28 71 -12 71 27 0 24 -27 44
-52 38z"/>
<path d="M1105 2095 c-14 -13 -25 -31 -25 -39 0 -30 23 -65 49 -74 71 -25 129
61 77 113 -32 32 -70 32 -101 0z"/>
<path d="M2080 2082 c-35 -12 -39 -46 -9 -63 18 -9 25 -8 41 8 18 19 18 20 1
40 -10 12 -25 19 -33 15z"/>
<path d="M175 2060 c-8 -25 10 -50 36 -50 24 0 32 16 25 46 -8 31 -52 34 -61
4z"/>
<path d="M942 2048 c-33 -33 6 -96 52 -84 29 7 45 49 29 75 -13 20 -64 26 -81
9z"/>
<path d="M1874 2053 c-38 -28 -13 -97 33 -91 37 4 56 36 40 68 -13 25 -52 37
-73 23z"/>
<path d="M764 2039 c-72 -36 -31 -149 47 -134 31 6 47 24 55 61 10 54 -51 98
-102 73z"/>
<path d="M1703 2042 c-29 -4 -53 -38 -53 -73 0 -30 40 -69 70 -69 10 0 29 9
44 21 59 47 15 134 -61 121z"/>
<path d="M566 1987 c-40 -40 -34 -87 16 -113 24 -12 33 -13 55 -2 68 32 58
120 -15 134 -24 5 -36 1 -56 -19z"/>
<path d="M1504 1998 c-49 -23 -50 -91 -2 -122 45 -30 107 9 108 67 0 23 -44
67 -67 66 -10 0 -28 -5 -39 -11z"/>
<path d="M381 1952 c-28 -22 -31 -75 -6 -102 45 -49 132 -7 121 59 -9 57 -70
80 -115 43z"/>
<path d="M1154 1960 c-28 -11 -64 -57 -64 -82 0 -19 -1 -19 -26 1 -15 12 -36
21 -48 21 -34 0 -66 -36 -66 -74 0 -77 104 -95 135 -23 8 18 14 26 15 19 0 -6
11 -21 24 -33 23 -20 23 -22 7 -59 -15 -37 -17 -38 -43 -24 -60 31 -122 -28
-95 -92 21 -50 100 -54 121 -7 10 20 10 20 34 -4 21 -21 22 -26 11 -52 -12
-26 -16 -28 -54 -23 -37 4 -45 1 -64 -24 -54 -69 31 -149 101 -95 24 20 25 20
41 0 11 -12 15 -28 11 -44 -5 -21 -9 -23 -32 -14 -49 19 -112 -19 -112 -67 0
-73 66 -110 129 -73 30 18 36 18 49 6 11 -11 11 -19 3 -35 -9 -17 -16 -19 -39
-13 -54 16 -101 -19 -102 -77 0 -37 37 -82 67 -82 15 0 14 -2 -5 -16 -28 -19
-55 -71 -46 -87 4 -7 -5 0 -21 15 -59 58 -154 18 -141 -60 10 -67 76 -93 130
-51 14 11 26 30 26 42 l1 22 17 -21 c25 -30 64 -52 85 -49 12 2 8 -5 -14 -25
-25 -24 -29 -35 -25 -61 10 -65 81 -97 130 -58 14 11 26 27 26 35 0 11 9 7 33
-12 l33 -26 -19 -39 c-48 -98 57 -184 151 -123 14 9 27 24 29 34 5 18 6 18 36
-1 18 -10 40 -19 49 -19 14 0 13 -4 -7 -25 -33 -32 -33 -78 0 -110 41 -42 107
-26 125 30 18 54 -19 104 -78 105 -9 1 -3 7 15 15 34 14 53 41 53 74 l0 21 20
-20 c41 -41 110 -10 110 48 0 60 -83 87 -116 37 l-16 -25 -28 27 c-23 21 -26
30 -17 44 9 14 20 16 62 12 48 -5 53 -4 78 27 36 42 35 83 -2 121 -16 16 -38
29 -48 29 -17 1 -17 2 2 18 93 80 -16 223 -112 147 -21 -17 -31 -20 -44 -12
-16 10 -16 13 -2 42 14 30 17 32 44 22 24 -9 33 -8 56 9 32 24 38 49 21 83
-19 37 -63 45 -94 17 l-26 -22 -30 28 c-27 25 -28 29 -15 49 9 12 13 29 10 38
-5 13 -3 13 15 -3 44 -38 112 -11 112 45 0 60 -84 87 -118 38 -13 -19 -14 -19
-41 3 l-28 23 18 36 c10 20 15 39 12 43 -4 3 8 -1 26 -10 31 -16 34 -15 59 3
36 26 40 65 10 93 -27 24 -63 20 -89 -10 -14 -17 -18 -17 -23 -5 -3 9 -21 25
-40 36 -34 20 -34 21 -21 53 8 19 11 36 8 40 -4 3 -3 6 1 6 4 0 15 -9 24 -20
39 -46 113 -28 127 31 9 35 -30 82 -69 82 -33 0 -79 -41 -73 -65 7 -24 3 -23
-31 12 -39 38 -72 38 -115 1 -32 -29 -34 -29 -49 -12 -9 10 -21 20 -27 22 -9
3 -8 14 3 40 17 41 15 66 -9 102 -24 38 -78 54 -121 37z m119 -956 c-4 -10
-10 -11 -23 -4 -10 6 -29 10 -42 11 -23 0 -23 0 -2 9 12 5 25 14 29 20 10 16
45 -17 38 -36z m452 -84 c3 -4 -7 -15 -21 -25 -31 -20 -60 -5 -44 25 9 17 54
17 65 0z m-404 -83 c13 -10 14 -17 4 -39 -10 -25 -12 -26 -26 -12 -9 8 -25 16
-37 17 -21 1 -21 2 6 24 32 26 32 26 53 10z m224 -135 c22 -17 22 -19 6 -41
-16 -20 -19 -21 -30 -7 -8 9 -20 16 -28 16 -11 0 -10 5 4 25 22 30 20 29 48 7z"/>
<path d="M1325 1950 c-40 -44 -7 -120 52 -120 27 0 73 41 73 65 0 20 -19 57
-34 67 -22 15 -73 8 -91 -12z"/>
<path d="M2286 1924 c-19 -19 -20 -26 -4 -42 18 -18 46 -14 58 7 7 15 6 23 -6
35 -19 20 -29 20 -48 0z"/>
<path d="M2099 1906 c-28 -20 -32 -53 -9 -76 47 -47 116 24 71 73 -13 13 -46
15 -62 3z"/>
<path d="M220 1885 c-19 -23 -8 -50 23 -53 32 -4 44 16 27 47 -13 24 -33 27
-50 6z"/>
<path d="M1904 1876 c-36 -30 -35 -72 1 -104 32 -27 69 -24 98 10 54 64 -35
150 -99 94z"/>
<path d="M783 1855 c-42 -30 -34 -121 12 -139 61 -23 131 23 120 80 -2 10 -4
22 -4 25 -1 3 -10 15 -21 27 -24 26 -75 29 -107 7z"/>
<path d="M1700 1845 c-71 -75 42 -184 115 -110 16 15 25 36 25 55 0 71 -91
107 -140 55z"/>
<path d="M613 1835 c-38 -16 -53 -42 -53 -88 0 -43 46 -87 90 -87 44 0 90 44
90 87 0 76 -59 117 -127 88z"/>
<path d="M440 1783 c-67 -28 -54 -128 19 -139 21 -4 56 15 70 38 14 22 7 71
-12 87 -17 13 -59 21 -77 14z"/>
<path d="M2327 1749 c-31 -18 -18 -59 21 -65 14 -3 43 36 36 48 -11 17 -40 26
-57 17z"/>
<path d="M2122 1730 c-36 -34 -28 -91 17 -114 70 -37 137 58 81 114 -26 26
-70 26 -98 0z"/>
<path d="M1953 1725 c-54 -23 -71 -66 -48 -120 25 -63 97 -75 146 -26 24 25
28 35 24 67 -8 67 -64 103 -122 79z"/>
<path d="M253 1698 c-19 -26 0 -57 34 -58 17 0 34 35 27 54 -7 19 -48 21 -61
4z"/>
<path d="M835 1678 c-50 -27 -60 -80 -22 -122 61 -70 168 -4 132 81 -21 49
-66 66 -110 41z"/>
<path d="M1760 1677 c-37 -19 -55 -61 -40 -97 17 -41 34 -52 76 -52 44 0 73
26 80 71 4 25 0 37 -25 61 -32 33 -53 36 -91 17z"/>
<path d="M634 1627 c-68 -59 0 -167 83 -132 57 24 71 88 28 130 -31 32 -75 32
-111 2z"/>
<path d="M455 1566 c-40 -61 40 -131 89 -77 24 27 27 57 7 80 -26 30 -76 28
-96 -3z"/>
<path d="M2354 1555 c-14 -37 26 -69 53 -42 22 22 8 57 -23 57 -14 0 -27 -7
-30 -15z"/>
<path d="M2166 1534 c-19 -18 -21 -55 -4 -72 7 -7 24 -12 38 -12 14 0 31 5 38
12 28 28 2 88 -38 88 -10 0 -26 -7 -34 -16z"/>
<path d="M1965 1523 c-41 -40 -38 -96 7 -127 34 -24 72 -20 103 11 22 23 26
34 21 63 -3 19 -15 43 -27 53 -27 22 -82 22 -104 0z"/>
<path d="M290 1509 c-9 -15 -8 -24 1 -35 27 -33 79 1 58 39 -14 23 -46 21 -59
-4z"/>
<path d="M895 1502 c-63 -13 -86 -92 -40 -137 50 -51 135 -15 135 58 0 49 -48
89 -95 79z"/>
<path d="M1815 1503 c-94 -23 -74 -163 23 -163 25 0 62 28 72 56 13 34 -7 82
-41 99 -15 8 -29 14 -31 14 -2 -1 -12 -4 -23 -6z"/>
<path d="M690 1457 c-50 -26 -61 -95 -20 -132 71 -64 182 37 118 108 -28 32
-65 41 -98 24z"/>
<path d="M500 1390 c-34 -34 -19 -95 25 -100 48 -5 75 16 75 59 0 55 -61 80
-100 41z"/>
<path d="M343 1339 c-29 -11 -30 -45 -2 -59 24 -13 49 2 49 30 0 26 -21 39
-47 29z"/>
<path d="M2012 1333 c-34 -29 -37 -66 -10 -98 45 -52 121 -23 121 46 0 58 -67
89 -111 52z"/>
<path d="M2210 1335 c-18 -22 -1 -50 31 -50 20 0 24 5 24 30 0 23 -5 31 -21
33 -11 2 -27 -4 -34 -13z"/>
<path d="M1815 1295 c-73 -72 28 -178 109 -114 20 16 26 29 26 59 0 72 -84
106 -135 55z"/>
<path d="M896 1285 c-15 -16 -22 -35 -20 -51 7 -63 81 -88 124 -42 26 28 26
58 -1 92 -27 34 -72 35 -103 1z"/>
<path d="M722 1270 c-72 -44 -43 -150 41 -150 35 0 87 48 82 76 -2 10 -4 24
-4 30 -2 21 -27 44 -57 53 -25 7 -39 5 -62 -9z"/>
<path d="M560 1222 c-49 -17 -54 -86 -8 -112 25 -13 30 -13 55 2 23 14 28 24
27 54 -2 45 -34 70 -74 56z"/>
<path d="M2250 1155 c-20 -25 -8 -50 25 -50 21 0 31 5 33 18 4 21 -14 47 -33
47 -7 0 -18 -7 -25 -15z"/>
<path d="M367 1153 c-15 -15 -6 -52 13 -58 25 -8 50 10 50 35 0 24 -46 41 -63
23z"/>
<path d="M2069 1136 c-27 -13 -37 -57 -17 -73 27 -22 54 -23 75 -4 43 40 -5
104 -58 77z"/>
<path d="M955 1117 c-38 -20 -51 -59 -33 -96 38 -72 150 -30 133 50 -10 43
-62 67 -100 46z"/>
<path d="M1867 1103 c-30 -34 -31 -70 -3 -97 29 -30 65 -33 95 -8 51 41 22
122 -43 122 -19 0 -40 -8 -49 -17z"/>
<path d="M763 1090 c-27 -11 -43 -40 -43 -78 0 -35 48 -82 77 -77 10 2 24 4
31 4 25 2 52 41 52 75 0 61 -60 100 -117 76z"/>
<path d="M576 1024 c-9 -8 -16 -18 -17 -22 0 -4 -2 -15 -4 -25 -5 -25 29 -57
60 -57 37 0 68 35 60 68 -11 49 -67 69 -99 36z"/>
<path d="M406 964 c-22 -21 -4 -54 29 -54 28 0 43 33 25 55 -16 19 -35 19 -54
-1z"/>
<path d="M2106 934 c-23 -23 -17 -44 16 -57 34 -12 55 44 24 65 -16 11 -23 10
-40 -8z"/>
<path d="M1905 915 c-41 -40 -29 -95 24 -113 57 -20 109 32 89 90 -18 50 -75
62 -113 23z"/>
<path d="M810 909 c-14 -5 -34 -23 -43 -39 -16 -26 -16 -32 -3 -65 17 -40 53
-60 91 -51 63 16 85 83 43 130 -28 30 -55 37 -88 25z"/>
<path d="M611 876 c-26 -15 -50 -51 -51 -79 -1 -75 91 -120 148 -72 38 32 47
67 27 109 -24 51 -76 69 -124 42z"/>
<path d="M432 818 c-47 -23 -41 -101 11 -123 74 -31 132 58 74 113 -25 24 -50
27 -85 10z"/>
<path d="M1020 730 c-20 -20 -26 -55 -12 -77 21 -33 82 -32 104 1 16 23 8 65
-14 80 -30 21 -54 20 -78 -4z"/>
<path d="M1962 718 c-30 -30 3 -77 40 -57 24 13 23 46 -1 59 -24 13 -24 13
-39 -2z"/>
<path d="M843 688 c-19 -25 -21 -46 -7 -67 27 -37 84 -20 91 27 5 39 -61 70
-84 40z"/>
<path d="M663 675 c-48 -20 -57 -65 -22 -109 14 -17 30 -26 50 -26 29 0 68 29
70 53 7 69 -39 107 -98 82z"/>
<path d="M1262 568 c-30 -30 0 -78 37 -58 25 13 27 33 5 54 -19 19 -26 20 -42
4z"/>
<path d="M1070 525 c-6 -8 -9 -23 -5 -35 10 -31 59 -24 63 9 6 37 -34 55 -58
26z"/>
<path d="M1823 500 c-27 -11 -29 -32 -7 -54 20 -21 27 -20 48 3 15 17 15 19
-1 39 -14 16 -23 18 -40 12z"/>
<path d="M884 486 c-11 -28 1 -51 25 -51 32 0 49 28 32 49 -17 20 -50 21 -57
2z"/>
<path d="M1444 447 c-58 -50 -17 -141 58 -132 65 8 92 89 45 133 -30 29 -69
28 -103 -1z"/>
<path d="M1679 307 c-31 -24 -42 -56 -29 -87 19 -46 84 -60 119 -25 20 19 19
81 0 101 -21 20 -70 27 -90 11z"/>
<path d="M1486 259 c-32 -25 -35 -70 -6 -99 41 -41 115 -20 120 35 4 35 1 44
-22 65 -28 26 -58 26 -92 -1z"/>
<path d="M1733 119 c-23 -8 -43 -38 -43 -63 0 -24 37 -56 64 -56 28 0 66 42
61 68 -2 9 -4 20 -4 24 -2 16 -56 35 -78 27z"/>
</g>
</svg>
