<?xml version="1.0" standalone="no"?>
<!DOCTYPE svg PUBLIC "-//W3C//DTD SVG 20010904//EN"
 "http://www.w3.org/TR/2001/REC-SVG-20010904/DTD/svg10.dtd">
<svg version="1.0" xmlns="http://www.w3.org/2000/svg"
 width="260.000000pt" height="260.000000pt" viewBox="0 0 260.000000 260.000000"
 preserveAspectRatio="xMidYMid meet">
<metadata>
Created by potrace 1.11, written by Peter Selinger 2001-2013
</metadata>
<g transform="translate(0.000000,260.000000) scale(0.100000,-0.100000)"
fill="#000000" stroke="none">
<path d="M1033 2508 l-93 -92 -88 87 -87 87 -63 -63 -63 -63 156 -159 c148
-152 155 -162 155 -200 l0 -40 200 200 200 200 85 -85 c47 -46 85 -89 85 -95
0 -6 -129 -140 -288 -298 l-287 -287 -85 85 c-46 47 -90 85 -96 85 -6 0 -37
-27 -69 -61 l-58 -60 157 -158 c154 -156 156 -158 156 -202 l0 -44 200 200
200 200 90 -90 90 -90 -292 -292 -293 -293 -90 90 -90 90 -65 -65 -65 -65 158
-158 c156 -156 157 -158 157 -202 l0 -45 200 200 200 200 90 -90 90 -90 -115
-115 -115 -115 0 -176 0 -176 -87 89 -87 89 -65 -66 -66 -65 155 -156 155
-155 147 153 c81 84 148 155 148 158 0 3 -27 35 -59 71 l-60 66 265 264 264
264 0 179 0 178 -177 -176 -177 -176 -88 87 -87 86 54 61 c30 34 149 156 265
271 l210 210 0 174 0 173 -170 -162 c-94 -90 -173 -167 -177 -173 -3 -5 -45
30 -94 79 l-88 87 265 271 264 271 0 93 0 92 -86 0 -87 0 -91 -90 -92 -90 -89
90 -90 90 -174 0 -174 0 -94 -92z"/>
<path d="M230 1875 l0 -180 175 -175 175 -175 -1 175 0 175 -174 180 -175 180
0 -180z"/>
</g>
</svg>
